<svg xmlns="http://www.w3.org/2000/svg" width="18" height="18" viewBox="0 0 18 18">
  <g transform="translate(1 1)">
    <path d="M1.6.8C1.1581722.8.8 1.1581722.8 1.6L.8 4.8C.8 5.2418278 1.1581722 5.6 1.6 5.6L14.4 5.6C14.8418278 5.6 15.2 5.2418278 15.2 4.8L15.2 1.6C15.2 1.1581722 14.8418278.8 14.4.8L1.6.8zM1.6-.8L14.4-.8C15.7254834-.8 16.8.2745166 16.8 1.6L16.8 4.8C16.8 6.1254834 15.7254834 7.2 14.4 7.2L1.6 7.2C.2745166 7.2-.8 6.1254834-.8 4.8L-.8 1.6C-.8.2745166.2745166-.8 1.6-.8zM1.6 10.4C1.1581722 10.4.8 10.7581722.8 11.2L.8 14.4C.8 14.8418278 1.1581722 15.2 1.6 15.2L14.4 15.2C14.8418278 15.2 15.2 14.8418278 15.2 14.4L15.2 11.2C15.2 10.7581722 14.8418278 10.4 14.4 10.4L1.6 10.4zM1.6 8.8L14.4 8.8C15.7254834 8.8 16.8 9.8745166 16.8 11.2L16.8 14.4C16.8 15.7254834 15.7254834 16.8 14.4 16.8L1.6 16.8C.2745166 16.8-.8 15.7254834-.8 14.4L-.8 11.2C-.8 9.8745166.2745166 8.8 1.6 8.8z"/>
  </g>
</svg>
